<svg xmlns="http://www.w3.org/2000/svg" xmlns:xlink="http://www.w3.org/1999/xlink" version="1.1" width="2232" height="1184"><g id="Backend Component Diagram"><g id="Backend"><rect width="1304" height="760" rx="8" ry="8" fill-opacity="0.1" fill="#ffffff" stroke-opacity="1" stroke-width="2" stroke="#4c5152" opacity="1" x="496" y="176"></rect><text font-family="IBM Plex Sans Medium, Arial, sans-serif" font-size="15" font-weight="500" fill="#ffffff" opacity="1" x="512" y="207.375"><tspan dy="0" x="512">Backend</tspan></text><g id="App" opacity="1"><text font-family="Courier New, monospace" font-size="12" text-anchor="middle" fill="#adb3b3" x="1148" y="924.6552734375"><tspan dy="0" x="1148">App</tspan></text></g></g><g id="Get/update userdata"><polyline points="552,640 512.23,640.26 498.2,641.03 474.69,643.85 464.89,645.8199999999999 448.34,650.63 434.78,656.3 398.73,674.62 383.84000000000003,679.9 375.11,682.18 354.26,685.76 341.8,686.97 327.77,687.74 288,688" fill="none" stroke-width="1" stroke="#adb3b3" opacity="1"></polyline></g><g id="Get/update userdata"><rect width="85.836" height="38.2" x="377.0071816002336" y="644.7489673532239" rx="4" ry="4" fill-opacity="0.8" fill="#323435" stroke-opacity="1" stroke-width="1" stroke="#434647" opacity="0.8"></rect><g opacity="1" fill="#e5e7e8"><text font-family="IBM Plex Sans Medium, Arial, sans-serif" font-size="14" text-anchor="middle" x="419.9251816002336" y="661.0989673532238"><tspan dy="0" x="419.9251816002336">Get/update</tspan></text><text font-family="IBM Plex Sans Medium, Arial, sans-serif" font-size="14" text-anchor="middle" x="419.9251816002336" y="677.0989673532238"><tspan dy="0" x="419.9251816002336">userdata</tspan></text></g></g><g id="Check/create User"><polyline points="552,480 436.14,480.27 390.91999999999996,481.79 356.73,484.1 323.09000000000003,487.74 290.72,493 260.35,500.19 241.55,506.19 224.17000000000002,513.26 216.07999999999998,517.22 201.22,526.06 188.31,536.1800000000001 182.65,541.75 173.06,553.97 165.95,567.69 161.52,583.01 160,600 160,624" fill="none" stroke-width="1" stroke="#adb3b3" opacity="1"></polyline></g><g id="Check/create User"><rect width="131.154" height="22.2" x="251.627292977516" y="477.59640466290597" rx="4" ry="4" fill-opacity="0.8" fill="#323435" stroke-opacity="1" stroke-width="1" stroke="#434647" opacity="0.8"></rect><g opacity="1" fill="#e5e7e8"><text font-family="IBM Plex Sans Medium, Arial, sans-serif" font-size="14" text-anchor="middle" x="317.204292977516" y="493.946404662906"><tspan dy="0" x="317.204292977516">Check/create User</tspan></text></g></g><g id="Save data"><polyline points="560,808 516.94,808.62 485.8,811.54 440.8,818.08 346,833.96 300,840 278.19,841.82 257.49,842.55 229.04,841.19 212.15,838.32 204.42000000000002,836.23 190.54,830.58 178.96,822.81 174.11,818.08 169.92,812.73 166.43,806.75 163.66,800.12 161.65,792.8 160.42,784.77 160,776 160,752" fill="none" stroke-width="1" stroke="#adb3b3" opacity="1"></polyline></g><g id="Save data"><rect width="75.084" height="22.2" x="292.7001695543279" y="824.9290716498231" rx="4" ry="4" fill-opacity="0.8" fill="#323435" stroke-opacity="1" stroke-width="1" stroke="#434647" opacity="0.8"></rect><g opacity="1" fill="#e5e7e8"><text font-family="IBM Plex Sans Medium, Arial, sans-serif" font-size="14" text-anchor="middle" x="330.2421695543279" y="841.279071649823"><tspan dy="0" x="330.2421695543279">Save data</tspan></text></g></g><g id="Sends code to"><polyline points="1176,840 1176,1024" fill="none" stroke-width="1" stroke="#adb3b3" opacity="1"></polyline></g><g id="Sends code to"><rect width="102.11800000000001" height="22.2" x="1124.941" y="920.9" rx="4" ry="4" fill-opacity="0.8" fill="#323435" stroke-opacity="1" stroke-width="1" stroke="#434647" opacity="0.8"></rect><g opacity="1" fill="#e5e7e8"><text font-family="IBM Plex Sans Medium, Arial, sans-serif" font-size="14" text-anchor="middle" x="1176" y="937.2500000000001"><tspan dy="0" x="1176">Sends code to</tspan></text></g></g><g id="Sends execution result to"><polyline points="1048,776 1006.85,776.26 979.73,778.14 969.17,779.66 952.58,783.56 940.09,788.24 918.03,798.17 903.79,802.52 894.83,804.34 871.81,807.01 857.15,807.74 816,808" fill="none" stroke-width="1" stroke="#adb3b3" opacity="1"></polyline></g><g id="Sends execution result to"><rect width="117.798" height="38.2" x="873.0557979694471" y="772.8019472422208" rx="4" ry="4" fill-opacity="0.8" fill="#323435" stroke-opacity="1" stroke-width="1" stroke="#434647" opacity="0.8"></rect><g opacity="1" fill="#e5e7e8"><text font-family="IBM Plex Sans Medium, Arial, sans-serif" font-size="14" text-anchor="middle" x="931.9547979694471" y="789.1519472422209"><tspan dy="0" x="931.9547979694471">Sends execution</tspan></text><text font-family="IBM Plex Sans Medium, Arial, sans-serif" font-size="14" text-anchor="middle" x="931.9547979694471" y="805.1519472422209"><tspan dy="0" x="931.9547979694471">result to</tspan></text></g></g><g id="Submit code"><polyline points="1256,96 1285.08,96.36 1294.97,99.18 1304.5,104.66 1313.67,112.66 1318.11,117.56 1326.71,129.04 1334.9,142.65 1346.43,166.72 1353.59,184.97 1363.51,215.28 1372.42,248.63 1380.28,284.5 1387.05,322.38 1392.69,361.74 1397.18,402.05 1400.46,442.8 1402.51,483.46 1403.29,523.51 1402.76,562.44 1401.67,587.5 1398.87,623.37 1394.67,656.72 1389.03,687.03 1384.45,705.28 1376.32,729.35 1370.04,742.96 1363.07,754.44 1359.32,759.34 1351.28,767.34 1342.52,772.82 1333.03,775.64 1304,776" fill="none" stroke-width="1" stroke="#adb3b3" opacity="1"></polyline></g><g id="Submit code"><rect width="92.318" height="22.2" x="1353.3442045873162" y="419.812983821078" rx="4" ry="4" fill-opacity="0.8" fill="#323435" stroke-opacity="1" stroke-width="1" stroke="#434647" opacity="0.8"></rect><g opacity="1" fill="#e5e7e8"><text font-family="IBM Plex Sans Medium, Arial, sans-serif" font-size="14" text-anchor="middle" x="1399.5032045873163" y="436.162983821078"><tspan dy="0" x="1399.5032045873163">Submit code</tspan></text></g></g><g id="Websocket"><polyline points="1752,536 1944,536" fill="none" stroke-width="1" stroke="#adb3b3" opacity="1"></polyline></g><g id="Websocket"><rect width="83.484" height="22.2" x="1806.258" y="524.9" rx="4" ry="4" fill-opacity="0.8" fill="#323435" stroke-opacity="1" stroke-width="1" stroke="#434647" opacity="0.8"></rect><g opacity="1" fill="#e5e7e8"><text font-family="IBM Plex Sans Medium, Arial, sans-serif" font-size="14" text-anchor="middle" x="1848" y="541.2500000000001"><tspan dy="0" x="1848">Websocket</tspan></text></g></g><g id="Get/Update user info"><polyline points="1064,160 1063.5900000000001,198.73 1062.38,214.9 1059.1100000000001,241.5 1054.17,270.48 1049.98,290.86 1039.5700000000002,333.49 1030.06,366.49 1022.97,388.7 1007.05,432.93 988.99,475.88 968.96,516.35 958.27,535.27 947.16,553.11 929.75,577.52 911.52,598.64 892.56,615.97 879.54,625.15 872.93,628.98 859.52,635 852.72,637.1600000000001 838.96,639.6800000000001 808,640" fill="none" stroke-width="1" stroke="#adb3b3" opacity="1"></polyline></g><g id="Get/Update user info"><rect width="118.77799999999999" height="38.2" x="942.2498634390621" y="426.69867748019266" rx="4" ry="4" fill-opacity="0.8" fill="#323435" stroke-opacity="1" stroke-width="1" stroke="#434647" opacity="0.8"></rect><g opacity="1" fill="#e5e7e8"><text font-family="IBM Plex Sans Medium, Arial, sans-serif" font-size="14" text-anchor="middle" x="1001.6388634390621" y="443.0486774801927"><tspan dy="0" x="1001.6388634390621">Get/Update user</tspan></text><text font-family="IBM Plex Sans Medium, Arial, sans-serif" font-size="14" text-anchor="middle" x="1001.6388634390621" y="459.0486774801927"><tspan dy="0" x="1001.6388634390621">info</tspan></text></g></g><g id="Realtime session"><polyline points="2072,472 2072,448 2071.1800000000003,434.78 2068.75,421.72 2064.77,408.83000000000004 2059.3,396.11 2048.44,377.39 2039.52,365.14 2023.76,347.13 2011.75,335.38 1991.65,318.15 1976.94,306.94 1953.05,290.53999999999996 1936.01,279.89 1908.9,264.38 1880.14,249.41 1849.91,235.03 1818.43,221.23 1785.89,208.05 1752.5,195.5 1707,179.78 1672.41,168.78 1626.04,155.19 1591.34,145.84 1545.57,134.53 1511.87,126.94 1468.16,118.03999999999999 1426.29,110.58 1386.74,104.61 1349.98,100.16 1316.51,97.3 1286.79,96.05 1256,96" fill="none" stroke-width="1" stroke="#adb3b3" opacity="1"></polyline></g><g id="Realtime session"><rect width="121.07400000000001" height="22.2" x="1665.045613746028" y="175.1001909469794" rx="4" ry="4" fill-opacity="0.8" fill="#323435" stroke-opacity="1" stroke-width="1" stroke="#434647" opacity="0.8"></rect><g opacity="1" fill="#e5e7e8"><text font-family="IBM Plex Sans Medium, Arial, sans-serif" font-size="14" text-anchor="middle" x="1725.582613746028" y="191.45019094697943"><tspan dy="0" x="1725.582613746028">Realtime session</tspan></text></g></g><g id="Create/Update/Read"><polyline points="1000,64 955.42,64.15 912.66,65.57 879.95,67.97 847.43,71.81 815.76,77.38 785.6,84.97 757.62,94.86 740.49,102.87 724.83,112.11 717.6,117.22 704.48,128.47 693.31,141.15 684.28,155.37 677.5899999999999,171.19 673.4300000000001,188.71 672,208 672,232" fill="none" stroke-width="1" stroke="#adb3b3" opacity="1"></polyline></g><g id="Create/Update/Read"><rect width="145.868" height="22.2" x="717.9942369547408" y="72.52910747723865" rx="4" ry="4" fill-opacity="0.8" fill="#323435" stroke-opacity="1" stroke-width="1" stroke="#434647" opacity="0.8"></rect><g opacity="1" fill="#e5e7e8"><text font-family="IBM Plex Sans Medium, Arial, sans-serif" font-size="14" text-anchor="middle" x="790.9282369547408" y="88.87910747723865"><tspan dy="0" x="790.9282369547408">Create/Update/Read</tspan></text></g></g><g id="Sign"><polyline points="1000,128 976,128 967.26,128.59 959.3,130.32 952.07,133.13 945.54,136.97 939.68,141.78 934.44,147.5 929.78,154.07 925.66,161.45 922.05,169.56 916.19,187.79 913.87,197.78 910.22,219.26 906.7,254.32 902.11,341.46000000000004 899.17,377.38 894.13,410.22 889.09,429.64 885.95,438.44 878.22,453.93 873.56,460.5 868.32,466.22 862.46,471.03 855.93,474.87 848.7,477.68 840.74,479.41 832,480 808,480" fill="none" stroke-width="1" stroke="#adb3b3" opacity="1"></polyline></g><g id="Sign"><rect width="39.748000000000005" height="22.2" x="884.2094768204572" y="292.89403700770333" rx="4" ry="4" fill-opacity="0.8" fill="#323435" stroke-opacity="1" stroke-width="1" stroke="#434647" opacity="0.8"></rect><g opacity="1" fill="#e5e7e8"><text font-family="IBM Plex Sans Medium, Arial, sans-serif" font-size="14" text-anchor="middle" x="904.0834768204572" y="309.24403700770335"><tspan dy="0" x="904.0834768204572">Sign</tspan></text></g></g><g id="READ/Update data"><polyline points="544,296 512.85,296.16999999999996 497.63,297.53 481.27,300.2 463.92,304.09000000000003 445.7,309.15999999999997 407.21000000000004,322.53999999999996 366.86,339.83000000000004 336.03,355.05 315.46000000000004,366.14 274.86,390.33000000000004 235.89,416.74 199.63,444.86 182.84,459.4 167.14,474.17 152.64,489.11 139.48000000000002,504.15 122.57,526.77 109.43,549.26 102.99,564.0699999999999 100.52,571.4 97.15,585.86 96.29,592.97 96,624" fill="none" stroke-width="1" stroke="#adb3b3" opacity="1"></polyline></g><g id="READ/Update data"><rect width="132.89" height="22.2" x="200.39042972280382" y="384.6682576602708" rx="4" ry="4" fill-opacity="0.8" fill="#323435" stroke-opacity="1" stroke-width="1" stroke="#434647" opacity="0.8"></rect><g opacity="1" fill="#e5e7e8"><text font-family="IBM Plex Sans Medium, Arial, sans-serif" font-size="14" text-anchor="middle" x="266.83542972280384" y="401.0182576602708"><tspan dy="0" x="266.83542972280384">READ/Update data</tspan></text></g></g><a href="https://app.icepanel.io/landscapes/SS5G3fJ2uyQcMtIOCj9I/versions/latest/model/objects?object=okXP8CstWj&amp;focus=okXP8CstWj" id="Auth Module" target="_blank"><rect width="256" height="128" rx="8" ry="8" fill-opacity="0.8" fill="#1f2121" stroke-opacity="1" stroke-width="1" stroke="#434647" opacity="1" x="552" y="416"></rect><text font-family="IBM Plex Sans Medium, Arial, sans-serif" font-size="24" font-weight="500" text-anchor="middle" fill="#ffffff" opacity="1" x="680" y="485"><tspan dy="0" x="680">Auth Module</tspan></text><g id="Component" opacity="1"><text font-family="Courier New, monospace" font-size="12" text-anchor="middle" fill="#adb3b3" x="680" y="532.6552734375"><tspan dy="0" x="680">Component</tspan></text></g></a><a href="https://app.icepanel.io/landscapes/SS5G3fJ2uyQcMtIOCj9I/versions/latest/model/objects?object=dkGzjHxwI4&amp;focus=dkGzjHxwI4" id="Question Module" target="_blank"><rect width="256" height="128" rx="8" ry="8" fill-opacity="0.8" fill="#1f2121" stroke-opacity="1" stroke-width="1" stroke="#434647" opacity="1" x="544" y="232"></rect><text font-family="IBM Plex Sans Medium, Arial, sans-serif" font-size="24" font-weight="500" text-anchor="middle" fill="#ffffff" opacity="1" x="672" y="301"><tspan dy="0" x="672">Question Module</tspan></text><g id="Component" opacity="1"><text font-family="Courier New, monospace" font-size="12" text-anchor="middle" fill="#adb3b3" x="672" y="348.6552734375"><tspan dy="0" x="672">Component</tspan></text></g></a><a href="https://app.icepanel.io/landscapes/SS5G3fJ2uyQcMtIOCj9I/versions/latest/model/objects?object=7aN3nRsk1s&amp;focus=7aN3nRsk1s" id="Submission module" target="_blank"><rect width="256" height="128" rx="8" ry="8" fill-opacity="0.8" fill="#1f2121" stroke-opacity="1" stroke-width="1" stroke="#434647" opacity="1" x="1048" y="712"></rect><text font-family="IBM Plex Sans Medium, Arial, sans-serif" font-size="24" font-weight="500" text-anchor="middle" fill="#ffffff" opacity="1" x="1176" y="781.0000000000001"><tspan dy="0" x="1176">Submission module</tspan></text><g id="Component" opacity="1"><text font-family="Courier New, monospace" font-size="12" text-anchor="middle" fill="#adb3b3" x="1176" y="828.6552734375"><tspan dy="0" x="1176">Component</tspan></text></g></a><a href="https://app.icepanel.io/landscapes/SS5G3fJ2uyQcMtIOCj9I/versions/latest/model/objects?object=NozLjAlmKY&amp;focus=NozLjAlmKY" id="User Module" target="_blank"><rect width="256" height="128" rx="8" ry="8" fill-opacity="0.8" fill="#1f2121" stroke-opacity="1" stroke-width="1" stroke="#434647" opacity="1" x="552" y="576"></rect><text font-family="IBM Plex Sans Medium, Arial, sans-serif" font-size="24" font-weight="500" text-anchor="middle" fill="#ffffff" opacity="1" x="680" y="645.0000000000001"><tspan dy="0" x="680">User Module</tspan></text><g id="Component" opacity="1"><text font-family="Courier New, monospace" font-size="12" text-anchor="middle" fill="#adb3b3" x="680" y="692.6552734375"><tspan dy="0" x="680">Component</tspan></text></g></a><a href="https://app.icepanel.io/landscapes/SS5G3fJ2uyQcMtIOCj9I/versions/latest/model/objects?object=I4USVtiZr6&amp;focus=I4USVtiZr6" id="History Module" target="_blank"><rect width="256" height="128" rx="8" ry="8" fill-opacity="0.8" fill="#1f2121" stroke-opacity="1" stroke-width="1" stroke="#434647" opacity="1" x="560" y="744"></rect><text font-family="IBM Plex Sans Medium, Arial, sans-serif" font-size="24" font-weight="500" text-anchor="middle" fill="#ffffff" opacity="1" x="688.0000000000001" y="813.0000000000001"><tspan dy="0" x="688.0000000000001">History Module</tspan></text><g id="Component" opacity="1"><text font-family="Courier New, monospace" font-size="12" text-anchor="middle" fill="#adb3b3" x="688" y="860.6552734375"><tspan dy="0" x="688">Component</tspan></text></g></a><a href="https://app.icepanel.io/landscapes/SS5G3fJ2uyQcMtIOCj9I/versions/latest/model/objects?object=MF9yvmcGnt&amp;focus=MF9yvmcGnt" id="Jugde0" target="_blank"><rect width="256" height="128" rx="8" ry="8" fill-opacity="0.8" fill="#1f2121" stroke-opacity="1" stroke-width="1" stroke="#434647" opacity="1" x="1048" y="1024"></rect><text font-family="IBM Plex Sans Medium, Arial, sans-serif" font-size="24" font-weight="500" text-anchor="middle" fill="#ffffff" opacity="1" x="1176" y="1093"><tspan dy="0" x="1176">Jugde0</tspan></text><g id="System" opacity="1"><text font-family="Courier New, monospace" font-size="12" text-anchor="middle" fill="#adb3b3" x="1176" y="1140.6552734375"><tspan dy="0" x="1176">System</tspan></text></g></a><a href="https://app.icepanel.io/landscapes/SS5G3fJ2uyQcMtIOCj9I/versions/latest/model/objects?object=uquiwzZVDj&amp;focus=uquiwzZVDj" id="Link" target="_blank"><path d="M32 633C32 621 288 621 288 633L288 737Q160 762 32 737L32 633Z " fill-opacity="0.8" fill="#1f2121" opacity="1"></path><path d="M32 633C32 621 288 621 288 633C288 645 32 645 32 633Z " fill="#595f61" opacity="1"></path><path d="M32 633C32 621 288 621 288 633L288 737Q160 762 32 737L32 633Z " fill-opacity="0" stroke-width="1" stroke="#434647" opacity="1"></path><text font-family="IBM Plex Sans Medium, Arial, sans-serif" font-size="24" font-weight="500" text-anchor="middle" fill="#ffffff" opacity="1" x="160" y="697.0000000000001"><tspan dy="0" x="160">PostgreSQL</tspan></text><g id="Store" opacity="1"><text font-family="Courier New, monospace" font-size="12" text-anchor="middle" fill="#adb3b3" x="160" y="738.6552734375"><tspan dy="0" x="160">Store</tspan></text></g></a><a href="https://app.icepanel.io/landscapes/SS5G3fJ2uyQcMtIOCj9I/versions/latest/model/objects?object=Sxn8CXQu3v&amp;focus=Sxn8CXQu3v" id="Collaboration module" target="_blank"><rect width="256" height="128" rx="8" ry="8" fill-opacity="0.8" fill="#1f2121" stroke-opacity="1" stroke-width="1" stroke="#434647" opacity="1" x="1496" y="472"></rect><text font-family="IBM Plex Sans Medium, Arial, sans-serif" font-size="24" font-weight="500" text-anchor="middle" fill="#ffffff" opacity="1" x="1624" y="541.0000000000001"><tspan dy="0" x="1624">Collaboration module</tspan></text><g id="Component" opacity="1"><text font-family="Courier New, monospace" font-size="12" text-anchor="middle" fill="#adb3b3" x="1624" y="588.6552734375"><tspan dy="0" x="1624">Component</tspan></text></g></a><a href="https://app.icepanel.io/landscapes/SS5G3fJ2uyQcMtIOCj9I/versions/latest/model/objects?object=GV9XCzQP01&amp;focus=GV9XCzQP01" id="Frontend" target="_blank"><rect width="256" height="128" rx="8" ry="8" fill-opacity="0.8" fill="#1f2121" stroke-opacity="1" stroke-width="1" stroke="#434647" opacity="1" x="1000" y="32"></rect><text font-family="IBM Plex Sans Medium, Arial, sans-serif" font-size="24" font-weight="500" text-anchor="middle" fill="#ffffff" opacity="1" x="1128.0000000000002" y="101"><tspan dy="0" x="1128.0000000000002">Frontend</tspan></text><g id="App" opacity="1"><text font-family="Courier New, monospace" font-size="12" text-anchor="middle" fill="#adb3b3" x="1128" y="148.6552734375"><tspan dy="0" x="1128">App</tspan></text></g></a><a href="https://app.icepanel.io/landscapes/SS5G3fJ2uyQcMtIOCj9I/versions/latest/model/objects?object=z8mB5qT5i4&amp;focus=z8mB5qT5i4" id="Realtime gateway" target="_blank"><rect width="256" height="128" rx="8" ry="8" fill-opacity="0.8" fill="#1f2121" stroke-opacity="1" stroke-width="1" stroke="#434647" opacity="1" x="1944" y="472"></rect><text font-family="IBM Plex Sans Medium, Arial, sans-serif" font-size="24" font-weight="500" text-anchor="middle" fill="#ffffff" opacity="1" x="2072" y="541.0000000000001"><tspan dy="0" x="2072">Realtime gateway</tspan></text><g id="App" opacity="1"><text font-family="Courier New, monospace" font-size="12" text-anchor="middle" fill="#adb3b3" x="2072" y="588.6552734375"><tspan dy="0" x="2072">App</tspan></text></g></a><g id="Get/update userdata"><polygon points="231.79131441849847,679.7378181225536 223.79131441849847,695.7378181225536 239.79131441849847,695.7378181225536 231.79131441849847,679.7378181225536" fill="#adb3b3" opacity="1" transform="matrix(-0.0065374514449422355,-0.9999786306359777,0.9999786306359777,-0.0065374514449422355,-390.20796809430806,924.2301141667906)"></polygon><circle r="4" fill="#adb3b3" opacity="1" cx="552" cy="640"></circle></g><g id="Check/create User"><polygon points="96,544 88,560 104,560 96,544" fill="#adb3b3" opacity="1" transform="matrix(-1,1.2246467991473532e-16,-1.2246467991473532e-16,-1,256.0000000000001,1168)"></polygon><circle r="4" fill="#adb3b3" opacity="1" cx="552" cy="480"></circle></g><g id="Save data"><polygon points="160,752 152,768 168,768 160,752" fill="#adb3b3" opacity="1" transform="matrix(1,0,0,1,0,0)"></polygon><circle r="4" fill="#adb3b3" opacity="1" cx="560" cy="808"></circle></g><g id="Sends code to"><polygon points="1111.9999999999998,944 1103.9999999999998,960 1119.9999999999998,960 1111.9999999999998,944" fill="#adb3b3" opacity="1" transform="matrix(-1,1.2246467991473532e-16,-1.2246467991473532e-16,-1,2288,1968)"></polygon><circle r="4" fill="#adb3b3" opacity="1" cx="1176" cy="840"></circle></g><g id="Sends execution result to"><polygon points="759.7982959592357,799.7466324191248 751.7982959592357,815.7466324191248 767.7982959592357,815.7466324191248 759.7982959592357,799.7466324191248" fill="#adb3b3" opacity="1" transform="matrix(-0.0063182213938850085,-0.9999800398400049,0.9999800398400049,-0.0063182213938850085,21.069904500180883,1572.8361065463223)"></polygon><circle r="4" fill="#adb3b3" opacity="1" cx="1048" cy="776"></circle></g><g id="Submit code"><polygon points="1247.6050448391957,767.5015392972231 1239.6050448391957,783.5015392972231 1255.6050448391957,783.5015392972231 1247.6050448391957,767.5015392972231" fill="#adb3b3" opacity="1" transform="matrix(-0.012400011094954777,-0.9999231169069175,0.9999231169069175,-0.012400011094954777,552.0277849931913,2033.0261527070834)"></polygon><circle r="4" fill="#adb3b3" opacity="1" cx="1256" cy="96"></circle></g><g id="Websocket"><polygon points="1936,463.9999999999999 1928,479.9999999999999 1944,479.9999999999999 1936,463.9999999999999" fill="#adb3b3" opacity="1" transform="matrix(6.123233995736766e-17,1,-1,6.123233995736766e-17,2408,-1400)"></polygon><circle r="4" fill="#adb3b3" opacity="1" cx="1752" cy="536"></circle></g><g id="Get/Update user info"><polygon points="751.6705501832861,631.5848762276462 743.6705501832861,647.5848762276462 759.6705501832861,647.5848762276462 751.6705501832861,631.5848762276462" fill="#adb3b3" opacity="1" transform="matrix(-0.010335365257735762,-0.9999465886861104,0.9999465886861104,-0.010335365257735762,184.21764724005345,1398.158062858663)"></polygon><circle r="4" fill="#adb3b3" opacity="1" cx="1064" cy="160"></circle></g><g id="Realtime session"><polygon points="1200.0519964998616,88.06491387601235 1192.0519964998616,104.06491387601235 1208.0519964998616,104.06491387601235 1200.0519964998616,88.06491387601235" fill="#adb3b3" opacity="1" transform="matrix(0.0016239017237265972,-0.9999986814707266,0.9999986814707266,0.0016239017237265972,1165.9864357344768,1295.9074054307316)"></polygon><circle r="4" fill="#adb3b3" opacity="1" cx="2072" cy="472"></circle></g><g id="Create/Update/Read"><polygon points="608,152 600,168 616,168 608,152" fill="#adb3b3" opacity="1" transform="matrix(-1,1.2246467991473532e-16,-1.2246467991473532e-16,-1,1280,383.9999999999999)"></polygon><circle r="4" fill="#adb3b3" opacity="1" cx="1000" cy="64"></circle></g><g id="Sign"><polygon points="752,472 744,488 760,488 752,472" fill="#adb3b3" opacity="1" transform="matrix(-1.8369701987210297e-16,-1,1,-1.8369701987210297e-16,336.00000000000017,1232)"></polygon><circle r="4" fill="#adb3b3" opacity="1" cx="1000" cy="128"></circle></g><g id="READ/Update data"><polygon points="31.777108139936814,544.3007991236808 23.777108139936814,560.3007991236808 39.777108139936814,560.3007991236808 31.777108139936814,544.3007991236808" fill="#adb3b3" opacity="1" transform="matrix(-0.9999563309242352,-0.009345386270320237,0.009345386270320237,-0.9999563309242352,122.68901924793906,1168.5739993609666)"></polygon><circle r="4" fill="#adb3b3" opacity="1" cx="544" cy="296"></circle></g></g></svg>