<svg xmlns="http://www.w3.org/2000/svg" xmlns:xlink="http://www.w3.org/1999/xlink" version="1.1" width="1104" height="784"><g id="Context Diagram"><g id="Quản lý user, câu hỏi"><polyline points="400,148 424,148 433.80999999999995,148.65 442.53,150.53 450.21000000000004,153.6 456.91999999999996,157.76 462.73,162.95 467.69000000000005,169.11 471.88,176.15 475.34000000000003,184.01 480.36,201.9 482.03,211.78 484.04999999999995,233.08 484.65,267.78 483.30999999999995,340.06 484.75,373.8 487.64,394.1 489.86,403.38 492.65999999999997,411.99 496.12,419.85 500.30999999999995,426.89 505.27,433.05 511.08000000000004,438.24 517.79,442.4 525.47,445.47 534.19,447.35 544,448 568,448" fill="none" stroke-width="1" stroke="#adb3b3" opacity="1"></polyline></g><g id="Quản lý user, câu hỏi"><rect width="122.11" height="38.2" x="423.03464669605734" y="278.90562448430603" rx="4" ry="4" fill-opacity="0.8" fill="#323435" stroke-opacity="1" stroke-width="1" stroke="#434647" opacity="0.8"></rect><g opacity="1" fill="#e5e7e8"><text font-family="IBM Plex Sans Medium, Arial, sans-serif" font-size="14" text-anchor="middle" x="484.08964669605734" y="295.25562448430605"><tspan dy="0" x="484.08964669605734">Quản lý user, câu</tspan></text><text font-family="IBM Plex Sans Medium, Arial, sans-serif" font-size="14" text-anchor="middle" x="484.08964669605734" y="311.25562448430605"><tspan dy="0" x="484.08964669605734">hỏi</tspan></text></g></g><g id="Sends code to"><polyline points="696,512 696,536 696.76,547.4100000000001 698.96,556.95 702.52,564.75 707.32,570.94 713.27,575.65 720.27,579 728.22,581.13 737.02,582.16 746.5699999999999,582.23 767.52,579.98 790.26,575.41 849.74,560.59 872.48,556.02 883.23,554.54 893.4300000000001,553.77 902.98,553.8399999999999 911.78,554.87 919.73,557 926.73,560.35 932.6800000000001,565.06 937.48,571.25 941.04,579.05 943.24,588.59 944,600 944,624" fill="none" stroke-width="1" stroke="#adb3b3" opacity="1"></polyline></g><g id="Sends code to"><rect width="102.11800000000001" height="22.2" x="768.9458256129261" y="556.898797653269" rx="4" ry="4" fill-opacity="0.8" fill="#323435" stroke-opacity="1" stroke-width="1" stroke="#434647" opacity="0.8"></rect><g opacity="1" fill="#e5e7e8"><text font-family="IBM Plex Sans Medium, Arial, sans-serif" font-size="14" text-anchor="middle" x="820.0048256129261" y="573.2487976532689"><tspan dy="0" x="820.0048256129261">Sends code to</tspan></text></g></g><g id="Xem code realtime"><polyline points="416,676 465.57000000000005,675.79 489.30999999999995,675.04 511.23,673.54 531.32,671.08 549.58,667.46 566.02,662.47 580.63,655.91 593.42,647.58 604.38,637.26 613.51,624.76 620.81,609.88 623.78,601.47 628.35,582.62 631.09,560.86 631.77,548.8299999999999 632,512" fill="none" stroke-width="1" stroke="#adb3b3" opacity="1"></polyline></g><g id="Xem code realtime"><rect width="132.47" height="22.2" x="511.7280158940225" y="646.0074959435464" rx="4" ry="4" fill-opacity="0.8" fill="#323435" stroke-opacity="1" stroke-width="1" stroke="#434647" opacity="0.8"></rect><g opacity="1" fill="#e5e7e8"><text font-family="IBM Plex Sans Medium, Arial, sans-serif" font-size="14" text-anchor="middle" x="577.9630158940225" y="662.3574959435465"><tspan dy="0" x="577.9630158940225">Xem code realtime</tspan></text></g></g><g id="Code"><polyline points="288,428 326.65,428.24 339.96000000000004,428.95 363.01,431.57 382.1,435.55 405.33000000000004,443.37 443.9,461.7 457.85,467.43 473.9,472.45 483.01,474.59 503.96000000000004,477.93 516.04,479.05 529.35,479.76 568,480" fill="none" stroke-width="1" stroke="#adb3b3" opacity="1"></polyline></g><g id="Code"><rect width="44.802" height="22.2" x="405.5523129118933" y="443.02149923969415" rx="4" ry="4" fill-opacity="0.8" fill="#323435" stroke-opacity="1" stroke-width="1" stroke="#434647" opacity="0.8"></rect><g opacity="1" fill="#e5e7e8"><text font-family="IBM Plex Sans Medium, Arial, sans-serif" font-size="14" text-anchor="middle" x="427.9533129118933" y="459.3714992396942"><tspan dy="0" x="427.9533129118933">Code</tspan></text></g></g><a href="https://app.icepanel.io/landscapes/SS5G3fJ2uyQcMtIOCj9I/versions/latest/model/objects?object=TrGX7vocKM&amp;focus=TrGX7vocKM" id="Online Code Editor" target="_blank"><rect width="256" height="128" rx="8" ry="8" fill-opacity="0.8" fill="#1f2121" stroke-opacity="1" stroke-width="1" stroke="#434647" opacity="1" x="568" y="384"></rect><text font-family="IBM Plex Sans Medium, Arial, sans-serif" font-size="24" font-weight="500" text-anchor="middle" fill="#ffffff" opacity="1" x="695.9999999999999" y="453"><tspan dy="0" x="695.9999999999999">Online Code Editor</tspan></text><g id="System" opacity="1"><text font-family="Courier New, monospace" font-size="12" text-anchor="middle" fill="#adb3b3" x="696" y="500.6552734375"><tspan dy="0" x="696">System</tspan></text></g></a><a href="https://app.icepanel.io/landscapes/SS5G3fJ2uyQcMtIOCj9I/versions/latest/model/objects?object=cBwl73oQQF&amp;focus=cBwl73oQQF" id="Admin" target="_blank"><rect width="56" height="56" rx="8" ry="8" fill-opacity="0.8" fill="#1f2121" stroke-opacity="1" stroke-width="1" stroke="#434647" opacity="1" x="244" y="32"></rect><rect width="256" height="96" rx="8" ry="8" fill-opacity="0.8" fill="#1f2121" stroke-opacity="1" stroke-width="1" stroke="#434647" opacity="1" x="144" y="96"></rect><path d="M272 61.714285714285715C275.7875 61.714285714285715 278.8571428571429 58.644642857142856 278.8571428571429 54.85714285714286C278.8571428571429 51.06964285714285 275.7875 48 272 48C268.2125 48 265.1428571428571 51.06964285714285 265.1428571428571 54.85714285714286C265.1428571428571 58.644642857142856 268.2125 61.714285714285715 272 61.714285714285715ZM276.8 63.42857142857143L275.90535714285716 63.42857142857143C274.71607142857147 63.974999999999994 273.3928571428571 64.28571428571428 272 64.28571428571428C270.6071428571429 64.28571428571428 269.2892857142857 63.974999999999994 268.09464285714284 63.42857142857143L267.2 63.42857142857143C263.225 63.42857142857143 260 66.65357142857142 260 70.62857142857143L260 72.85714285714286C260 74.27678571428571 261.1517857142857 75.42857142857143 262.57142857142856 75.42857142857143L281.42857142857144 75.42857142857143C282.8482142857143 75.42857142857143 284 74.27678571428571 284 72.85714285714286L284 70.62857142857143C284 66.65357142857142 280.775 63.42857142857143 276.8 63.42857142857143Z " fill="#ffffff" opacity="1"></path><text font-family="IBM Plex Sans Medium, Arial, sans-serif" font-size="24" font-weight="500" text-anchor="middle" fill="#ffffff" opacity="1" x="272" y="144"><tspan dy="0" x="272">Admin</tspan></text><g id="Actor" opacity="1"><text font-family="Courier New, monospace" font-size="12" text-anchor="middle" fill="#adb3b3" x="272" y="180.6552734375"><tspan dy="0" x="272">Actor</tspan></text></g></a><a href="https://app.icepanel.io/landscapes/SS5G3fJ2uyQcMtIOCj9I/versions/latest/model/objects?object=MF9yvmcGnt&amp;focus=MF9yvmcGnt" id="Jugde0" target="_blank"><rect width="256" height="128" rx="8" ry="8" fill-opacity="0.8" fill="#1f2121" stroke-opacity="1" stroke-width="1" stroke="#434647" opacity="1" x="816" y="624"></rect><text font-family="IBM Plex Sans Medium, Arial, sans-serif" font-size="24" font-weight="500" text-anchor="middle" fill="#ffffff" opacity="1" x="944" y="693.0000000000001"><tspan dy="0" x="944">Jugde0</tspan></text><g id="System" opacity="1"><text font-family="Courier New, monospace" font-size="12" text-anchor="middle" fill="#adb3b3" x="944" y="740.6552734375"><tspan dy="0" x="944">System</tspan></text></g></a><a href="https://app.icepanel.io/landscapes/SS5G3fJ2uyQcMtIOCj9I/versions/latest/model/objects?object=u1svGd7cld&amp;focus=u1svGd7cld" id="Coder" target="_blank"><rect width="56" height="56" rx="8" ry="8" fill-opacity="0.8" fill="#1f2121" stroke-opacity="1" stroke-width="1" stroke="#434647" opacity="1" x="132" y="312"></rect><rect width="256" height="96" rx="8" ry="8" fill-opacity="0.8" fill="#1f2121" stroke-opacity="1" stroke-width="1" stroke="#434647" opacity="1" x="32" y="376"></rect><path d="M160 341.7142857142857C163.7875 341.7142857142857 166.85714285714286 338.64464285714286 166.85714285714286 334.85714285714283C166.85714285714286 331.06964285714287 163.7875 328 160 328C156.2125 328 153.14285714285714 331.06964285714287 153.14285714285714 334.85714285714283C153.14285714285714 338.64464285714286 156.2125 341.7142857142857 160 341.7142857142857ZM164.8 343.42857142857144L163.90535714285716 343.42857142857144C162.71607142857144 343.975 161.39285714285714 344.2857142857143 160 344.2857142857143C158.60714285714286 344.2857142857143 157.2892857142857 343.975 156.09464285714284 343.42857142857144L155.2 343.42857142857144C151.225 343.42857142857144 148 346.6535714285714 148 350.62857142857143L148 352.85714285714283C148 354.2767857142857 149.15178571428572 355.42857142857144 150.57142857142856 355.42857142857144L169.42857142857142 355.42857142857144C170.84821428571428 355.42857142857144 172 354.2767857142857 172 352.85714285714283L172 350.62857142857143C172 346.6535714285714 168.775 343.42857142857144 164.8 343.42857142857144Z " fill="#ffffff" opacity="1"></path><text font-family="IBM Plex Sans Medium, Arial, sans-serif" font-size="24" font-weight="500" text-anchor="middle" fill="#ffffff" opacity="1" x="160" y="424"><tspan dy="0" x="160">Coder</tspan></text><g id="Actor" opacity="1"><text font-family="Courier New, monospace" font-size="12" text-anchor="middle" fill="#adb3b3" x="160" y="460.6552734375"><tspan dy="0" x="160">Actor</tspan></text></g></a><a href="https://app.icepanel.io/landscapes/SS5G3fJ2uyQcMtIOCj9I/versions/latest/model/objects?object=OewHAPYGcb&amp;focus=OewHAPYGcb" id="Viewer" target="_blank"><rect width="56" height="56" rx="8" ry="8" fill-opacity="0.8" fill="#1f2121" stroke-opacity="1" stroke-width="1" stroke="#434647" opacity="1" x="260" y="560"></rect><rect width="256" height="96" rx="8" ry="8" fill-opacity="0.8" fill="#1f2121" stroke-opacity="1" stroke-width="1" stroke="#434647" opacity="1" x="160" y="624"></rect><path d="M288 589.7142857142857C291.7875 589.7142857142857 294.8571428571429 586.6446428571428 294.8571428571429 582.8571428571429C294.8571428571429 579.0696428571429 291.7875 576 288 576C284.2125 576 281.1428571428571 579.0696428571429 281.1428571428571 582.8571428571429C281.1428571428571 586.6446428571428 284.2125 589.7142857142857 288 589.7142857142857ZM292.8 591.4285714285714L291.90535714285716 591.4285714285714C290.71607142857147 591.975 289.3928571428571 592.2857142857143 288 592.2857142857143C286.6071428571429 592.2857142857143 285.2892857142857 591.975 284.09464285714284 591.4285714285714L283.2 591.4285714285714C279.225 591.4285714285714 276 594.6535714285715 276 598.6285714285714L276 600.8571428571429C276 602.2767857142857 277.1517857142857 603.4285714285714 278.57142857142856 603.4285714285714L297.42857142857144 603.4285714285714C298.8482142857143 603.4285714285714 300 602.2767857142857 300 600.8571428571429L300 598.6285714285714C300 594.6535714285715 296.775 591.4285714285714 292.8 591.4285714285714Z " fill="#ffffff" opacity="1"></path><text font-family="IBM Plex Sans Medium, Arial, sans-serif" font-size="24" font-weight="500" text-anchor="middle" fill="#ffffff" opacity="1" x="288" y="672.0000000000001"><tspan dy="0" x="288">Viewer</tspan></text><g id="Actor" opacity="1"><text font-family="Courier New, monospace" font-size="12" text-anchor="middle" fill="#adb3b3" x="288" y="708.6552734375"><tspan dy="0" x="288">Actor</tspan></text></g></a><g id="Quản lý user, câu hỏi"><polygon points="560,376 552,392 568,392 560,376" fill="#adb3b3" opacity="1" transform="matrix(6.123233995736766e-17,1,-1,6.123233995736766e-17,944,-112)"></polygon><circle r="4" fill="#adb3b3" opacity="1" cx="400" cy="148"></circle></g><g id="Sends code to"><polygon points="879.9999999999999,544 871.9999999999999,560 887.9999999999999,560 879.9999999999999,544" fill="#adb3b3" opacity="1" transform="matrix(-1,1.2246467991473532e-16,-1.2246467991473532e-16,-1,1824,1168)"></polygon><circle r="4" fill="#adb3b3" opacity="1" cx="696" cy="512"></circle></g><g id="Xem code realtime"><polygon points="632.1492509305757,511.7993868523031 624.1492509305757,527.7993868523031 640.1492509305757,527.7993868523031 632.1492509305757,511.7993868523031" fill="#adb3b3" opacity="1" transform="matrix(0.9999805011258553,0.006244787272847992,-0.006244787272847992,0.9999805011258553,3.0591535653754818,-3.7370449372231747)"></polygon><circle r="4" fill="#adb3b3" opacity="1" cx="416" cy="676"></circle></g><g id="Code"><polygon points="559.8008347996936,407.752238787788 551.8008347996936,423.752238787788 567.8008347996936,423.752238787788 559.8008347996936,407.752238787788" fill="#adb3b3" opacity="1" transform="matrix(-0.0062094533784745705,0.9999807211585334,-0.9999807211585334,-0.0062094533784745705,979.2204349819385,-77.25812397142522)"></polygon><circle r="4" fill="#adb3b3" opacity="1" cx="288" cy="428"></circle></g></g></svg>