<svg xmlns="http://www.w3.org/2000/svg" xmlns:xlink="http://www.w3.org/1999/xlink" version="1.1" width="1560" height="584"><g id="Frontend Component Diagram"><g id="Frontend"><rect width="688" height="520" rx="8" ry="8" fill-opacity="0.1" fill="#ffffff" stroke-opacity="1" stroke-width="2" stroke="#4c5152" opacity="1" x="424" y="32"></rect><text font-family="IBM Plex Sans Medium, Arial, sans-serif" font-size="15" font-weight="500" fill="#ffffff" opacity="1" x="440" y="63.375"><tspan dy="0" x="440">Frontend</tspan></text><g id="App" opacity="1"><text font-family="Courier New, monospace" font-size="12" text-anchor="middle" fill="#adb3b3" x="768" y="540.6552734375"><tspan dy="0" x="768">App</tspan></text></g></g><g id="Get/send data"><polyline points="472,160 448,160 431.93,160.82 419.32,163.11 409.63,166.66000000000003 402.34000000000003,171.23000000000002 396.90999999999997,176.58999999999997 392.82,182.52999999999997 383.18,201.47000000000003 379.09000000000003,207.41000000000003 373.65999999999997,212.76999999999998 366.37,217.33999999999997 356.68,220.89 344.07,223.18 328,224 304,224" fill="none" stroke-width="1" stroke="#adb3b3" opacity="1"></polyline></g><g id="Get/send data"><rect width="103.742" height="22.2" x="336.129" y="180.9" rx="4" ry="4" fill-opacity="0.8" fill="#323435" stroke-opacity="1" stroke-width="1" stroke="#434647" opacity="0.8"></rect><g opacity="1" fill="#e5e7e8"><text font-family="IBM Plex Sans Medium, Arial, sans-serif" font-size="14" text-anchor="middle" x="388" y="197.24999999999997"><tspan dy="0" x="388">Get/send data</tspan></text></g></g><g id="Calls Apis"><polyline points="1048,152 1116.17,152.58999999999997 1142.53,154.07 1171.0900000000001,157.31 1193.5,158.99 1230.75,159.93 1272,160" fill="none" stroke-width="1" stroke="#adb3b3" opacity="1"></polyline></g><g id="Calls Apis"><rect width="74.916" height="22.2" x="1122.5369373478898" y="144.95131642181943" rx="4" ry="4" fill-opacity="0.8" fill="#323435" stroke-opacity="1" stroke-width="1" stroke="#434647" opacity="0.8"></rect><g opacity="1" fill="#e5e7e8"><text font-family="IBM Plex Sans Medium, Arial, sans-serif" font-size="14" text-anchor="middle" x="1159.9949373478898" y="161.3013164218194"><tspan dy="0" x="1159.9949373478898">Calls Apis</tspan></text></g></g><g id="Calls apis"><polyline points="936,360 935.55,317.66 934.34,305.15 932.54,297.01 930.37,291.78 925.63,284.22 923.46,278.99 921.66,270.85 920.45,258.34 920,216" fill="none" stroke-width="1" stroke="#adb3b3" opacity="1"></polyline></g><g id="Calls apis"><rect width="73.362" height="22.2" x="891.319" y="276.9" rx="4" ry="4" fill-opacity="0.8" fill="#323435" stroke-opacity="1" stroke-width="1" stroke="#434647" opacity="0.8"></rect><g opacity="1" fill="#e5e7e8"><text font-family="IBM Plex Sans Medium, Arial, sans-serif" font-size="14" text-anchor="middle" x="928" y="293.25"><tspan dy="0" x="928">Calls apis</tspan></text></g></g><g id="Sends realtime code"><polyline points="608,352 607.73,310.48 606.99,299.43 605.9300000000001,293.01 602.0699999999999,282.99 601.01,276.57 600.27,265.52 600,224" fill="none" stroke-width="1" stroke="#adb3b3" opacity="1"></polyline></g><g id="Sends realtime code"><rect width="108.53" height="38.2" x="549.735" y="268.9" rx="4" ry="4" fill-opacity="0.8" fill="#323435" stroke-opacity="1" stroke-width="1" stroke="#434647" opacity="0.8"></rect><g opacity="1" fill="#e5e7e8"><text font-family="IBM Plex Sans Medium, Arial, sans-serif" font-size="14" text-anchor="middle" x="604" y="285.25"><tspan dy="0" x="604">Sends realtime</tspan></text><text font-family="IBM Plex Sans Medium, Arial, sans-serif" font-size="14" text-anchor="middle" x="604" y="301.25"><tspan dy="0" x="604">code</tspan></text></g></g><g id="Send data to"><polyline points="176,288 175.45,329.61 173.98,340.68 171.85,347.07 164.15,356.93 162.02,363.32 160.55,374.39 160,416" fill="none" stroke-width="1" stroke="#adb3b3" opacity="1"></polyline></g><g id="Send data to"><rect width="92.92" height="22.2" x="121.53999999999999" y="340.9" rx="4" ry="4" fill-opacity="0.8" fill="#323435" stroke-opacity="1" stroke-width="1" stroke="#434647" opacity="0.8"></rect><g opacity="1" fill="#e5e7e8"><text font-family="IBM Plex Sans Medium, Arial, sans-serif" font-size="14" text-anchor="middle" x="167.99999999999997" y="357.25"><tspan dy="0" x="167.99999999999997">Send data to</tspan></text></g></g><a href="https://app.icepanel.io/landscapes/SS5G3fJ2uyQcMtIOCj9I/versions/latest/model/objects?object=zEjxzZPQEH&amp;focus=zEjxzZPQEH" id="Backend" target="_blank"><rect width="256" height="128" rx="8" ry="8" fill-opacity="0.8" fill="#1f2121" stroke-opacity="1" stroke-width="1" stroke="#434647" opacity="1" x="1272" y="96"></rect><text font-family="IBM Plex Sans Medium, Arial, sans-serif" font-size="24" font-weight="500" text-anchor="middle" fill="#ffffff" opacity="1" x="1400" y="164.99999999999997"><tspan dy="0" x="1400">Backend</tspan></text><g id="App" opacity="1"><text font-family="Courier New, monospace" font-size="12" text-anchor="middle" fill="#adb3b3" x="1400" y="212.6552734375"><tspan dy="0" x="1400">App</tspan></text></g></a><a href="https://app.icepanel.io/landscapes/SS5G3fJ2uyQcMtIOCj9I/versions/latest/model/objects?object=hrhLwMsBcG&amp;focus=hrhLwMsBcG" id="Socket client" target="_blank"><rect width="256" height="128" rx="8" ry="8" fill-opacity="0.8" fill="#1f2121" stroke-opacity="1" stroke-width="1" stroke="#434647" opacity="1" x="472" y="96"></rect><text font-family="IBM Plex Sans Medium, Arial, sans-serif" font-size="24" font-weight="500" text-anchor="middle" fill="#ffffff" opacity="1" x="600.0000000000001" y="164.99999999999997"><tspan dy="0" x="600.0000000000001">Socket client</tspan></text><g id="Component" opacity="1"><text font-family="Courier New, monospace" font-size="12" text-anchor="middle" fill="#adb3b3" x="600" y="212.6552734375"><tspan dy="0" x="600">Component</tspan></text></g></a><a href="https://app.icepanel.io/landscapes/SS5G3fJ2uyQcMtIOCj9I/versions/latest/model/objects?object=z8mB5qT5i4&amp;focus=z8mB5qT5i4" id="Realtime gateway" target="_blank"><rect width="256" height="128" rx="8" ry="8" fill-opacity="0.8" fill="#1f2121" stroke-opacity="1" stroke-width="1" stroke="#434647" opacity="1" x="48" y="160"></rect><text font-family="IBM Plex Sans Medium, Arial, sans-serif" font-size="24" font-weight="500" text-anchor="middle" fill="#ffffff" opacity="1" x="176" y="228.99999999999997"><tspan dy="0" x="176">Realtime gateway</tspan></text><g id="App" opacity="1"><text font-family="Courier New, monospace" font-size="12" text-anchor="middle" fill="#adb3b3" x="176" y="276.6552734375"><tspan dy="0" x="176">App</tspan></text></g></a><a href="https://app.icepanel.io/landscapes/SS5G3fJ2uyQcMtIOCj9I/versions/latest/model/objects?object=sDeXfB3Xsu&amp;focus=sDeXfB3Xsu" id="API Client" target="_blank"><rect width="256" height="128" rx="8" ry="8" fill-opacity="0.8" fill="#1f2121" stroke-opacity="1" stroke-width="1" stroke="#434647" opacity="1" x="792" y="88"></rect><text font-family="IBM Plex Sans Medium, Arial, sans-serif" font-size="24" font-weight="500" text-anchor="middle" fill="#ffffff" opacity="1" x="920" y="156.99999999999997"><tspan dy="0" x="920">API Client</tspan></text><g id="Component" opacity="1"><text font-family="Courier New, monospace" font-size="12" text-anchor="middle" fill="#adb3b3" x="920" y="204.6552734375"><tspan dy="0" x="920">Component</tspan></text></g></a><a href="https://app.icepanel.io/landscapes/SS5G3fJ2uyQcMtIOCj9I/versions/latest/model/objects?object=AWRuDR3Ou0&amp;focus=AWRuDR3Ou0" id="Monaco Editor" target="_blank"><rect width="256" height="128" rx="8" ry="8" fill-opacity="0.8" fill="#1f2121" stroke-opacity="1" stroke-width="1" stroke="#434647" opacity="1" x="480" y="352"></rect><text font-family="IBM Plex Sans Medium, Arial, sans-serif" font-size="24" font-weight="500" text-anchor="middle" fill="#ffffff" opacity="1" x="608" y="421"><tspan dy="0" x="608">Monaco Editor</tspan></text><g id="Component" opacity="1"><text font-family="Courier New, monospace" font-size="12" text-anchor="middle" fill="#adb3b3" x="608" y="468.6552734375"><tspan dy="0" x="608">Component</tspan></text></g></a><a href="https://app.icepanel.io/landscapes/SS5G3fJ2uyQcMtIOCj9I/versions/latest/model/objects?object=nHDLA1IsHf&amp;focus=nHDLA1IsHf" id="Other Pages" target="_blank"><rect width="256" height="128" rx="8" ry="8" fill-opacity="0.8" fill="#1f2121" stroke-opacity="1" stroke-width="1" stroke="#434647" opacity="1" x="808" y="360"></rect><text font-family="IBM Plex Sans Medium, Arial, sans-serif" font-size="24" font-weight="500" text-anchor="middle" fill="#ffffff" opacity="1" x="936" y="429"><tspan dy="0" x="936">Other Pages</tspan></text><g id="Component" opacity="1"><text font-family="Courier New, monospace" font-size="12" text-anchor="middle" fill="#adb3b3" x="936" y="476.6552734375"><tspan dy="0" x="936">Component</tspan></text></g></a><a href="https://app.icepanel.io/landscapes/SS5G3fJ2uyQcMtIOCj9I/versions/latest/model/objects?object=uJwZgTGsYP&amp;focus=uJwZgTGsYP" id="Viewer Browser" target="_blank"><rect width="256" height="128" rx="8" ry="8" fill-opacity="0.8" fill="#1f2121" stroke-opacity="1" stroke-width="1" stroke="#434647" opacity="1" x="32" y="416"></rect><text font-family="IBM Plex Sans Medium, Arial, sans-serif" font-size="24" font-weight="500" text-anchor="middle" fill="#ffffff" opacity="1" x="160" y="485"><tspan dy="0" x="160">Viewer Browser</tspan></text><g id="System" opacity="1"><text font-family="Courier New, monospace" font-size="12" text-anchor="middle" fill="#adb3b3" x="160" y="532.6552734375"><tspan dy="0" x="160">System</tspan></text></g></a><g id="Get/send data"><polygon points="248,216 240,232 256,232 248,216" fill="#adb3b3" opacity="1" transform="matrix(-1.8369701987210297e-16,-1,1,-1.8369701987210297e-16,88.00000000000006,472.00000000000006)"></polygon><circle r="4" fill="#adb3b3" opacity="1" cx="472" cy="160"></circle></g><g id="Calls Apis"><polygon points="1263.9456624914858,87.93216738505544 1255.9456624914858,103.93216738505545 1271.9456624914858,103.93216738505545 1263.9456624914858,87.93216738505544" fill="#adb3b3" opacity="1" transform="matrix(-0.0016969672535874772,0.9999985601500335,-0.9999985601500335,-0.0016969672535874772,1362.0769151754891,-1103.7946245907767)"></polygon><circle r="4" fill="#adb3b3" opacity="1" cx="1048" cy="152"></circle></g><g id="Calls apis"><polygon points="919.7431292638332,216.3378257117338 911.7431292638332,232.3378257117338 927.7431292638332,232.3378257117338 919.7431292638332,216.3378257117338" fill="#adb3b3" opacity="1" transform="matrix(0.9999435249618311,-0.010627647289392604,0.010627647289392604,0.9999435249618311,-1.9903488425208025,9.449097549888876)"></polygon><circle r="4" fill="#adb3b3" opacity="1" cx="936" cy="360"></circle></g><g id="Sends realtime code"><polygon points="599.8432573557998,224.20724236103527 591.8432573557998,240.20724236103527 607.8432573557998,240.20724236103527 599.8432573557998,224.20724236103527" fill="#adb3b3" opacity="1" transform="matrix(0.9999788568802624,-0.006502752682024618,0.006502752682024618,0.9999788568802624,-1.2885390445783287,3.698130430100804)"></polygon><circle r="4" fill="#adb3b3" opacity="1" cx="608" cy="352"></circle></g><g id="Send data to"><polygon points="95.6855913463192,336.4264321413516 87.6855913463192,352.4264321413516 103.6855913463192,352.4264321413516 95.6855913463192,336.4264321413516" fill="#adb3b3" opacity="1" transform="matrix(-0.9999126539946304,-0.013216821910527234,0.013216821910527234,-0.9999126539946304,251.2307453525373,753.6617060566311)"></polygon><circle r="4" fill="#adb3b3" opacity="1" cx="176" cy="288"></circle></g></g></svg>