<svg xmlns="http://www.w3.org/2000/svg" xmlns:xlink="http://www.w3.org/1999/xlink" version="1.1" width="1704" height="560"><g id="Online Code Editor App Diagram"><g id="Online Code Editor"><rect width="784" height="496" rx="8" ry="8" fill-opacity="0.1" fill="#ffffff" stroke-opacity="1" stroke-width="2" stroke="#4c5152" opacity="1" x="472" y="32"></rect><text font-family="IBM Plex Sans Medium, Arial, sans-serif" font-size="15" font-weight="500" fill="#ffffff" opacity="1" x="488" y="63.375"><tspan dy="0" x="488">Online Code Editor</tspan></text><g id="System" opacity="1"><text font-family="Courier New, monospace" font-size="12" text-anchor="middle" fill="#adb3b3" x="864" y="516.6552734375"><tspan dy="0" x="864">System</tspan></text></g></g><g id="Sends code"><polyline points="648,216 648.34,257.89 649.25,268.16 650.53,273.35 653.47,278.65 654.75,283.84 655.66,294.11 656,336" fill="none" stroke-width="1" stroke="#adb3b3" opacity="1"></polyline></g><g id="Sends code"><rect width="85.836" height="22.2" x="609.082" y="264.9" rx="4" ry="4" fill-opacity="0.8" fill="#323435" stroke-opacity="1" stroke-width="1" stroke="#434647" opacity="0.8"></rect><g opacity="1" fill="#e5e7e8"><text font-family="IBM Plex Sans Medium, Arial, sans-serif" font-size="14" text-anchor="middle" x="652" y="281.25"><tspan dy="0" x="652">Sends code</tspan></text></g></g><g id="Send data to"><polyline points="528,400 487.14,400.16999999999996 449.3,402.5 425.21,406.76 390.79,417.24 366.7,421.5 328.86,423.83000000000004 288,424" fill="none" stroke-width="1" stroke="#adb3b3" opacity="1"></polyline></g><g id="Send data to"><rect width="92.92" height="22.2" x="361.54" y="400.9" rx="4" ry="4" fill-opacity="0.8" fill="#323435" stroke-opacity="1" stroke-width="1" stroke="#434647" opacity="0.8"></rect><g opacity="1" fill="#e5e7e8"><text font-family="IBM Plex Sans Medium, Arial, sans-serif" font-size="14" text-anchor="middle" x="408" y="417.25"><tspan dy="0" x="408">Send data to</tspan></text></g></g><g id="Get data from"><polyline points="1080,216 1080,336" fill="none" stroke-width="1" stroke="#adb3b3" opacity="1"></polyline></g><g id="Get data from"><rect width="100.466" height="22.2" x="1029.767" y="264.9" rx="4" ry="4" fill-opacity="0.8" fill="#323435" stroke-opacity="1" stroke-width="1" stroke="#434647" opacity="0.8"></rect><g opacity="1" fill="#e5e7e8"><text font-family="IBM Plex Sans Medium, Arial, sans-serif" font-size="14" text-anchor="middle" x="1080" y="281.25"><tspan dy="0" x="1080">Get data from</tspan></text></g></g><g id="Call APIs"><polyline points="1208,152 1274.55,151.33999999999997 1298.7,149.70999999999998 1325.3,146.29000000000002 1339.85,145.12 1375.15,144.07999999999998 1416,144" fill="none" stroke-width="1" stroke="#adb3b3" opacity="1"></polyline></g><g id="Call APIs"><rect width="70.576" height="22.2" x="1276.7140541619444" y="136.89973589346428" rx="4" ry="4" fill-opacity="0.8" fill="#323435" stroke-opacity="1" stroke-width="1" stroke="#434647" opacity="0.8"></rect><g opacity="1" fill="#e5e7e8"><text font-family="IBM Plex Sans Medium, Arial, sans-serif" font-size="14" text-anchor="middle" x="1312.0020541619444" y="153.24973589346425"><tspan dy="0" x="1312.0020541619444">Call APIs</tspan></text></g></g><g id="Call Apis"><polyline points="776,152 952,152" fill="none" stroke-width="1" stroke="#adb3b3" opacity="1"></polyline></g><g id="Call Apis"><rect width="68" height="22.2" x="830" y="140.9" rx="4" ry="4" fill-opacity="0.8" fill="#323435" stroke-opacity="1" stroke-width="1" stroke="#434647" opacity="0.8"></rect><g opacity="1" fill="#e5e7e8"><text font-family="IBM Plex Sans Medium, Arial, sans-serif" font-size="14" text-anchor="middle" x="864" y="157.24999999999997"><tspan dy="0" x="864">Call Apis</tspan></text></g></g><g id="Sends data to"><polyline points="1016,216 1016,240 1015.33,249.95999999999998 1013.36,258.55 1010.18,265.86 1005.85,271.97 1000.46,276.95 994.07,280.89 986.78,283.87 978.64,285.96 969.75,287.25 960.17,287.82 939.26,287.11 904.66,282.64 843.43,271.44 807.92,266.01 786.02,264.25 775.83,264.18 757.36,266.04 749.22,268.13 741.93,271.11 735.54,275.05 730.15,280.03 725.82,286.14 722.64,293.45 720.67,302.04 720,312 720,336" fill="none" stroke-width="1" stroke="#adb3b3" opacity="1"></polyline></g><g id="Sends data to"><rect width="99.836" height="22.2" x="818.0983329700397" y="264.8372550916944" rx="4" ry="4" fill-opacity="0.8" fill="#323435" stroke-opacity="1" stroke-width="1" stroke="#434647" opacity="0.8"></rect><g opacity="1" fill="#e5e7e8"><text font-family="IBM Plex Sans Medium, Arial, sans-serif" font-size="14" text-anchor="middle" x="868.0163329700397" y="281.1872550916944"><tspan dy="0" x="868.0163329700397">Sends data to</tspan></text></g></g><a href="https://app.icepanel.io/landscapes/SS5G3fJ2uyQcMtIOCj9I/versions/latest/model/objects?object=uquiwzZVDj&amp;focus=uquiwzZVDj" id="Link" target="_blank"><path d="M952 345C952 333 1208 333 1208 345L1208 449Q1080 474 952 449L952 345Z " fill-opacity="0.8" fill="#1f2121" opacity="1"></path><path d="M952 345C952 333 1208 333 1208 345C1208 357 952 357 952 345Z " fill="#595f61" opacity="1"></path><path d="M952 345C952 333 1208 333 1208 345L1208 449Q1080 474 952 449L952 345Z " fill-opacity="0" stroke-width="1" stroke="#434647" opacity="1"></path><text font-family="IBM Plex Sans Medium, Arial, sans-serif" font-size="24" font-weight="500" text-anchor="middle" fill="#ffffff" opacity="1" x="1080.0000000000002" y="409"><tspan dy="0" x="1080.0000000000002">PostgreSQL</tspan></text><g id="Store" opacity="1"><text font-family="Courier New, monospace" font-size="12" text-anchor="middle" fill="#adb3b3" x="1080" y="450.6552734375"><tspan dy="0" x="1080">Store</tspan></text></g></a><a href="https://app.icepanel.io/landscapes/SS5G3fJ2uyQcMtIOCj9I/versions/latest/model/objects?object=GV9XCzQP01&amp;focus=GV9XCzQP01" id="Frontend" target="_blank"><rect width="256" height="128" rx="8" ry="8" fill-opacity="0.8" fill="#1f2121" stroke-opacity="1" stroke-width="1" stroke="#434647" opacity="1" x="520" y="88"></rect><text font-family="IBM Plex Sans Medium, Arial, sans-serif" font-size="24" font-weight="500" text-anchor="middle" fill="#ffffff" opacity="1" x="647.9999999999999" y="156.99999999999997"><tspan dy="0" x="647.9999999999999">Frontend</tspan></text><g id="App" opacity="1"><text font-family="Courier New, monospace" font-size="12" text-anchor="middle" fill="#adb3b3" x="648" y="204.6552734375"><tspan dy="0" x="648">App</tspan></text></g></a><a href="https://app.icepanel.io/landscapes/SS5G3fJ2uyQcMtIOCj9I/versions/latest/model/objects?object=zEjxzZPQEH&amp;focus=zEjxzZPQEH" id="Backend" target="_blank"><rect width="256" height="128" rx="8" ry="8" fill-opacity="0.8" fill="#1f2121" stroke-opacity="1" stroke-width="1" stroke="#434647" opacity="1" x="952" y="88"></rect><text font-family="IBM Plex Sans Medium, Arial, sans-serif" font-size="24" font-weight="500" text-anchor="middle" fill="#ffffff" opacity="1" x="1080" y="156.99999999999997"><tspan dy="0" x="1080">Backend</tspan></text><g id="App" opacity="1"><text font-family="Courier New, monospace" font-size="12" text-anchor="middle" fill="#adb3b3" x="1080" y="204.6552734375"><tspan dy="0" x="1080">App</tspan></text></g></a><a href="https://app.icepanel.io/landscapes/SS5G3fJ2uyQcMtIOCj9I/versions/latest/model/objects?object=z8mB5qT5i4&amp;focus=z8mB5qT5i4" id="Realtime gateway" target="_blank"><rect width="256" height="128" rx="8" ry="8" fill-opacity="0.8" fill="#1f2121" stroke-opacity="1" stroke-width="1" stroke="#434647" opacity="1" x="528" y="336"></rect><text font-family="IBM Plex Sans Medium, Arial, sans-serif" font-size="24" font-weight="500" text-anchor="middle" fill="#ffffff" opacity="1" x="655.9999999999999" y="405"><tspan dy="0" x="655.9999999999999">Realtime gateway</tspan></text><g id="App" opacity="1"><text font-family="Courier New, monospace" font-size="12" text-anchor="middle" fill="#adb3b3" x="656" y="452.6552734375"><tspan dy="0" x="656">App</tspan></text></g></a><a href="https://app.icepanel.io/landscapes/SS5G3fJ2uyQcMtIOCj9I/versions/latest/model/objects?object=uJwZgTGsYP&amp;focus=uJwZgTGsYP" id="Viewer Browser" target="_blank"><rect width="256" height="160" rx="8" ry="8" fill-opacity="0.8" fill="#1f2121" stroke-opacity="1" stroke-width="1" stroke="#434647" opacity="1" x="32" y="344"></rect><text font-family="IBM Plex Sans Medium, Arial, sans-serif" font-size="24" font-weight="500" text-anchor="middle" fill="#ffffff" opacity="1" x="160" y="429"><tspan dy="0" x="160">Viewer Browser</tspan></text><g id="System" opacity="1"><text font-family="Courier New, monospace" font-size="12" text-anchor="middle" fill="#adb3b3" x="160" y="492.6552734375"><tspan dy="0" x="160">System</tspan></text></g></a><a href="https://app.icepanel.io/landscapes/SS5G3fJ2uyQcMtIOCj9I/versions/latest/model/objects?object=MF9yvmcGnt&amp;focus=MF9yvmcGnt" id="Jugde0" target="_blank"><rect width="256" height="128" rx="8" ry="8" fill-opacity="0.8" fill="#1f2121" stroke-opacity="1" stroke-width="1" stroke="#434647" opacity="1" x="1416" y="80"></rect><text font-family="IBM Plex Sans Medium, Arial, sans-serif" font-size="24" font-weight="500" text-anchor="middle" fill="#ffffff" opacity="1" x="1544" y="149"><tspan dy="0" x="1544">Jugde0</tspan></text><g id="System" opacity="1"><text font-family="Courier New, monospace" font-size="12" text-anchor="middle" fill="#adb3b3" x="1544" y="196.6552734375"><tspan dy="0" x="1544">System</tspan></text></g></a><g id="Sends code"><polygon points="592.1958434659253,255.741598180928 584.1958434659253,271.741598180928 600.1958434659253,271.741598180928 592.1958434659253,255.741598180928" fill="#adb3b3" opacity="1" transform="matrix(-0.9999670628770727,0.008116228249660053,-0.008116228249660053,-0.9999670628770727,1250.2519954224015,586.9267781544015)"></polygon><circle r="4" fill="#adb3b3" opacity="1" cx="648" cy="216"></circle></g><g id="Send data to"><polygon points="231.8670713287125,415.83330255285273 223.8670713287125,431.83330255285273 239.8670713287125,431.83330255285273 231.8670713287125,415.83330255285273" fill="#adb3b3" opacity="1" transform="matrix(-0.004160512203997832,-0.999991345031646,0.999991345031646,-0.004160512203997832,-126.86501774881032,657.5951440566478)"></polygon><circle r="4" fill="#adb3b3" opacity="1" cx="528" cy="400"></circle></g><g id="Get data from"><polygon points="1016.0000000000001,256 1008.0000000000001,272 1024,272 1016.0000000000001,256" fill="#adb3b3" opacity="1" transform="matrix(-1,1.2246467991473532e-16,-1.2246467991473532e-16,-1,2096,591.9999999999999)"></polygon><circle r="4" fill="#adb3b3" opacity="1" cx="1080" cy="216"></circle></g><g id="Call APIs"><polygon points="1408.0626221553812,72.0783965872293 1400.0626221553812,88.0783965872293 1416.0626221553812,88.0783965872293 1408.0626221553812,72.0783965872293" fill="#adb3b3" opacity="1" transform="matrix(0.001958380577470677,0.9999980823709183,-0.9999980823709183,0.001958380577470677,1485.3207358765085,-1264.2010789454796)"></polygon><circle r="4" fill="#adb3b3" opacity="1" cx="1208" cy="152"></circle></g><g id="Call Apis"><polygon points="944,79.99999999999994 936,95.99999999999994 952,95.99999999999994 944,79.99999999999994" fill="#adb3b3" opacity="1" transform="matrix(6.123233995736766e-17,1,-1,6.123233995736766e-17,1032,-792)"></polygon><circle r="4" fill="#adb3b3" opacity="1" cx="776" cy="152"></circle></g><g id="Sends data to"><polygon points="656.0000000000001,255.9999999999999 648.0000000000001,271.9999999999999 664.0000000000001,271.9999999999999 656.0000000000001,255.9999999999999" fill="#adb3b3" opacity="1" transform="matrix(-1,1.2246467991473532e-16,-1.2246467991473532e-16,-1,1376,592)"></polygon><circle r="4" fill="#adb3b3" opacity="1" cx="1016" cy="216"></circle></g></g></svg>